<?xml version="1.0" encoding="utf-8"?>
<!-- Generator: Adobe Illustrator 16.0.0, SVG Export Plug-In . SVG Version: 6.00 Build 0)  -->
<!DOCTYPE svg PUBLIC "-//W3C//DTD SVG 1.1//EN" "http://www.w3.org/Graphics/SVG/1.1/DTD/svg11.dtd">
<svg version="1.1" id="圖層_1" xmlns="http://www.w3.org/2000/svg" xmlns:xlink="http://www.w3.org/1999/xlink" x="0px" y="0px"
	 width="288px" height="48px" viewBox="0 0 288 48" enable-background="new 0 0 288 48" xml:space="preserve">
<polygon fill="#B81C22" points="5.157,43.603 26.759,4.688 24.954,1.443 0,46.274 49.904,46.274 48.417,43.603 "/>
<polygon fill="#116636" points="8.213,41.756 47.242,41.756 27.755,6.742 "/>
<path fill="#004447" d="M64.313,22.134c0.432,0.254,0.7,0.635,0.801,1.143c0.025,0.127,0.037,0.253,0.037,0.381
	c0,0.355-0.102,0.685-0.304,0.99c-0.279,0.406-0.66,0.66-1.143,0.76h-0.343c-0.356,0-0.699-0.1-1.028-0.303
	c-1.219-0.813-2.565-1.601-4.038-2.363c-0.38-0.202-0.635-0.519-0.762-0.951c-0.026-0.127-0.038-0.241-0.038-0.343
	c0-0.279,0.088-0.546,0.267-0.8c0.279-0.381,0.646-0.635,1.105-0.762c0.176-0.05,0.354-0.076,0.532-0.076
	c0.279,0,0.558,0.064,0.838,0.19C61.735,20.712,63.095,21.424,64.313,22.134 M62.371,41.749c-0.279,0.458-0.672,0.749-1.181,0.876
	c-0.153,0.026-0.292,0.038-0.418,0.038c-0.356,0-0.699-0.114-1.029-0.343c-0.457-0.33-0.737-0.774-0.837-1.333
	c-0.026-0.152-0.038-0.29-0.038-0.418c0-0.407,0.114-0.775,0.343-1.105c1.752-2.919,3.389-5.929,4.913-9.027
	c0.204-0.405,0.533-0.659,0.991-0.761c0.126-0.025,0.24-0.039,0.342-0.039c0.305,0,0.596,0.114,0.876,0.344
	c0.406,0.329,0.673,0.762,0.8,1.294c0.024,0.179,0.039,0.356,0.039,0.534c0,0.33-0.064,0.646-0.192,0.952
	C65.532,35.808,63.996,38.803,62.371,41.749 M60.238,12.117c-0.407-0.203-0.66-0.507-0.761-0.914
	c-0.026-0.127-0.039-0.241-0.039-0.343c0-0.304,0.101-0.583,0.305-0.838c0.305-0.38,0.686-0.634,1.143-0.762
	c0.178-0.05,0.355-0.075,0.533-0.075c0.281,0,0.573,0.075,0.877,0.228c1.523,0.737,2.881,1.473,4.075,2.209
	c0.432,0.254,0.686,0.635,0.762,1.143c0.024,0.101,0.039,0.203,0.039,0.305c0,0.381-0.114,0.723-0.343,1.028
	c-0.28,0.407-0.66,0.647-1.143,0.724h-0.343c-0.356,0-0.699-0.102-1.029-0.305C63.119,13.729,61.761,12.93,60.238,12.117
	 M68.237,13.983c0-0.914,0.324-1.695,0.971-2.342c0.648-0.647,1.428-0.972,2.342-0.972h16.415c0.914,0,1.695,0.324,2.343,0.972
	c0.646,0.647,0.971,1.429,0.971,2.342v27.689c0,0.508-0.171,0.938-0.514,1.294s-0.768,0.535-1.276,0.535h-0.076
	c-0.484,0-0.889-0.172-1.219-0.515c-0.331-0.342-0.496-0.743-0.496-1.2c0-0.152-0.062-0.228-0.19-0.228H71.893
	c-0.153,0-0.229,0.075-0.229,0.228v0.343c0,0.458-0.165,0.857-0.495,1.2c-0.331,0.343-0.737,0.514-1.22,0.514
	c-0.482,0-0.889-0.171-1.218-0.514c-0.331-0.343-0.495-0.742-0.495-1.2V13.983z M71.664,37.712c0,0.254,0.126,0.382,0.381,0.382
	h15.274c0.252,0,0.379-0.128,0.379-0.382V14.44c0-0.253-0.127-0.38-0.379-0.38H72.045c-0.255,0-0.381,0.127-0.381,0.38V37.712z
	 M74.711,22.134c0-0.914,0.324-1.695,0.971-2.342c0.648-0.648,1.429-0.972,2.343-0.972h3.427c0.915,0,1.696,0.324,2.344,0.972
	c0.646,0.647,0.97,1.429,0.97,2.342v7.808c0,0.914-0.324,1.695-0.97,2.344c-0.647,0.646-1.429,0.97-2.344,0.97h-3.427
	c-0.914,0-1.695-0.323-2.343-0.97c-0.646-0.648-0.971-1.43-0.971-2.344V22.134z M81.491,30.286c0.252,0,0.381-0.128,0.381-0.383
	v-7.731c0-0.253-0.128-0.38-0.381-0.38h-3.581c-0.254,0-0.381,0.127-0.381,0.38v7.731c0,0.255,0.126,0.383,0.381,0.383H81.491z"/>
<path fill="#004447" d="M102.21,21.639c0.407,0.279,0.635,0.673,0.686,1.181v0.19c0,0.433-0.127,0.813-0.381,1.143
	c-0.279,0.356-0.647,0.56-1.104,0.609h-0.191c-0.405,0-0.761-0.126-1.066-0.381c-0.939-0.736-1.98-1.447-3.123-2.132
	c-0.356-0.228-0.585-0.546-0.687-0.953v-0.304c0-0.28,0.089-0.546,0.267-0.8c0.305-0.381,0.686-0.622,1.143-0.724
	c0.153-0.025,0.291-0.039,0.419-0.039c0.304,0,0.609,0.077,0.914,0.229C100.28,20.319,101.321,20.979,102.21,21.639 M100.04,41.787
	c-0.178,0.457-0.496,0.762-0.953,0.914c-0.178,0.077-0.369,0.115-0.571,0.115c-0.255,0-0.496-0.076-0.725-0.229
	c-0.457-0.23-0.76-0.585-0.914-1.067c-0.077-0.204-0.114-0.406-0.114-0.609c0-0.253,0.05-0.507,0.152-0.762
	c1.269-2.87,2.45-5.916,3.542-9.141c0.152-0.405,0.424-0.679,0.818-0.818s0.768-0.109,1.124,0.096
	c0.406,0.253,0.698,0.608,0.876,1.064c0.101,0.255,0.152,0.496,0.152,0.725s-0.039,0.444-0.115,0.647
	C102.35,35.669,101.258,38.689,100.04,41.787 M98.288,12.041c-0.356-0.228-0.56-0.546-0.61-0.952
	c-0.025-0.076-0.038-0.153-0.038-0.229c0-0.304,0.114-0.596,0.343-0.875c0.33-0.331,0.724-0.546,1.181-0.648h0.305
	c0.355,0,0.672,0.089,0.953,0.267c1.167,0.685,2.208,1.396,3.123,2.133c0.405,0.33,0.61,0.774,0.61,1.333
	c0,0.432-0.151,0.825-0.458,1.18c-0.279,0.356-0.661,0.547-1.143,0.572h-0.076c-0.432,0-0.813-0.139-1.142-0.418
	C100.471,13.641,99.455,12.854,98.288,12.041 M116.607,17.983c0,0.914-0.324,1.695-0.971,2.342
	c-0.647,0.648-1.428,0.971-2.343,0.971h-4.684c-0.254,0-0.381,0.128-0.381,0.381v20.758c0,0.432-0.159,0.805-0.477,1.123
	c-0.318,0.317-0.699,0.477-1.143,0.477c-0.445,0-0.819-0.159-1.124-0.477c-0.305-0.318-0.457-0.691-0.457-1.123v-29.67
	c0-0.915,0.323-1.696,0.971-2.343c0.648-0.647,1.428-0.971,2.342-0.971h4.951c0.915,0,1.695,0.324,2.343,0.971
	s0.971,1.428,0.971,2.343V17.983z M113.599,12.345c0-0.253-0.127-0.38-0.38-0.38h-4.608c-0.254,0-0.381,0.126-0.381,0.38v1.41
	c0,0.254,0.126,0.381,0.381,0.381h4.608c0.253,0,0.38-0.127,0.38-0.381V12.345z M108.229,18.363c0,0.254,0.126,0.381,0.381,0.381
	h4.608c0.253,0,0.38-0.126,0.38-0.381v-1.409c0-0.253-0.127-0.381-0.38-0.381h-4.608c-0.254,0-0.381,0.127-0.381,0.381V18.363z
	 M127.12,9.451c0.914,0,1.695,0.324,2.342,0.971c0.647,0.647,0.972,1.428,0.972,2.343v27.499c0,0.837-0.096,1.497-0.286,1.98
	c-0.19,0.482-0.528,0.862-1.01,1.144c-0.609,0.329-1.6,0.52-2.971,0.571h-0.076c-0.484,0-0.927-0.167-1.334-0.495
	c-0.406-0.332-0.711-0.763-0.914-1.295c-0.025-0.076-0.051-0.141-0.077-0.191c-0.076,0.102-0.166,0.115-0.266,0.039
	c-1.447-0.966-2.92-2.324-4.418-4.075c-0.051-0.053-0.109-0.069-0.171-0.058c-0.063,0.013-0.096,0.058-0.096,0.132v4.114
	c0,0.382-0.133,0.711-0.399,0.99c-0.267,0.278-0.591,0.418-0.972,0.418c-0.381,0-0.711-0.14-0.99-0.418
	c-0.28-0.279-0.419-0.608-0.419-0.99v-3.96c0-0.076-0.026-0.121-0.076-0.134c-0.052-0.014-0.102,0.006-0.153,0.058
	c-1.294,1.498-2.641,2.754-4.038,3.771c-0.33,0.229-0.679,0.291-1.047,0.189c-0.368-0.101-0.667-0.317-0.895-0.646
	c-0.153-0.229-0.229-0.458-0.229-0.686c0-0.102,0.014-0.204,0.04-0.306c0.075-0.38,0.278-0.66,0.609-0.84
	c1.624-0.988,3.096-2.297,4.417-3.922c0.025-0.05,0.025-0.107,0-0.17c-0.025-0.064-0.077-0.096-0.151-0.096h-0.724
	c-0.915,0-1.696-0.324-2.343-0.973c-0.647-0.647-0.971-1.427-0.971-2.341v-1.333c0-0.915,0.323-1.696,0.971-2.343
	c0.647-0.647,1.428-0.971,2.343-0.971h1.866c0.252,0,0.381-0.126,0.381-0.381v-0.801c0-0.253-0.128-0.38-0.381-0.38h-4.761
	c-0.331,0-0.61-0.121-0.838-0.361c-0.229-0.242-0.343-0.528-0.343-0.857c0-0.33,0.114-0.616,0.343-0.857
	c0.228-0.241,0.507-0.362,0.838-0.362h4.951c0.126,0,0.191-0.063,0.191-0.19v-0.496c0-0.38,0.139-0.704,0.419-0.971
	c0.279-0.266,0.609-0.4,0.99-0.4c0.38,0,0.705,0.134,0.972,0.4c0.266,0.267,0.399,0.59,0.399,0.971v0.496
	c0,0.127,0.076,0.19,0.229,0.19h5.18c0.354,0,0.647,0.121,0.875,0.362c0.229,0.242,0.343,0.527,0.343,0.857
	c0,0.329-0.114,0.615-0.343,0.857c-0.228,0.24-0.521,0.361-0.875,0.361h-5.028c-0.255,0-0.381,0.127-0.381,0.38v0.801
	c0,0.255,0.126,0.381,0.381,0.381h2.285c0.916,0,1.695,0.323,2.343,0.971c0.648,0.646,0.971,1.428,0.971,2.343v1.333
	c0,0.914-0.323,1.693-0.971,2.341c-0.647,0.648-1.427,0.973-2.343,0.973h-1.256c-0.075,0-0.133,0.031-0.171,0.096
	c-0.038,0.063-0.032,0.12,0.02,0.17c1.371,1.475,2.894,2.706,4.57,3.695c0.254,0.152,0.401,0.376,0.437,0.667
	c0.039,0.293-0.056,0.539-0.285,0.742v0.076c0,0.026,0.013,0.039,0.038,0.039c0.534,0.024,1.118,0.037,1.752,0.037
	c0.253-0.026,0.425-0.088,0.514-0.189c0.088-0.102,0.134-0.268,0.134-0.495V21.677c0-0.253-0.127-0.381-0.381-0.381h-5.104
	c-0.914,0-1.695-0.323-2.343-0.971c-0.647-0.647-0.971-1.428-0.971-2.342v-5.218c0-0.915,0.323-1.696,0.971-2.343
	c0.648-0.647,1.429-0.971,2.343-0.971H127.12z M113.065,29.372c-0.254,0-0.38,0.126-0.38,0.379v3.314
	c0,0.254,0.126,0.381,0.38,0.381h2.972c0.253,0,0.381-0.127,0.381-0.381v-3.314c0-0.253-0.128-0.379-0.381-0.379H113.065z
	 M113.485,30.933c-0.102-0.152-0.122-0.311-0.058-0.478c0.063-0.163,0.184-0.285,0.362-0.361c0.126-0.052,0.252-0.075,0.381-0.075
	c0.278,0,0.506,0.151,0.685,0.456c0.279,0.407,0.508,0.839,0.685,1.295c0.102,0.205,0.107,0.406,0.02,0.609
	c-0.089,0.204-0.247,0.344-0.476,0.42c-0.178,0.102-0.362,0.102-0.552,0c-0.19-0.101-0.324-0.24-0.4-0.42
	C113.954,31.872,113.738,31.39,113.485,30.933 M122.092,33.446c0.253,0,0.381-0.127,0.381-0.381v-3.314
	c0-0.253-0.128-0.379-0.381-0.379h-3.2c-0.254,0-0.381,0.126-0.381,0.379v3.314c0,0.254,0.127,0.381,0.381,0.381H122.092z
	 M120.721,32.57c-0.102,0.178-0.253,0.291-0.457,0.343c-0.203,0.051-0.394,0.037-0.571-0.038c-0.178-0.076-0.292-0.21-0.343-0.4
	c-0.051-0.188-0.025-0.361,0.077-0.515c0.278-0.507,0.533-1.015,0.762-1.523c0.101-0.227,0.253-0.386,0.457-0.476
	c0.204-0.088,0.413-0.088,0.628,0c0.216,0.09,0.355,0.243,0.419,0.459c0.063,0.214,0.044,0.424-0.058,0.627
	C121.407,31.402,121.102,31.909,120.721,32.57 M127.234,12.345c0-0.253-0.127-0.38-0.381-0.38h-4.952
	c-0.253,0-0.381,0.126-0.381,0.38v1.41c0,0.254,0.127,0.381,0.381,0.381h4.952c0.253,0,0.381-0.127,0.381-0.381V12.345z
	 M121.521,18.363c0,0.254,0.127,0.381,0.381,0.381h4.952c0.253,0,0.381-0.126,0.381-0.381v-1.409c0-0.253-0.127-0.381-0.381-0.381
	h-4.952c-0.253,0-0.381,0.127-0.381,0.381V18.363z"/>
<path fill="#004447" d="M169.339,13.641c0.344,0.331,0.516,0.495,0.516,0.495v0.705c0,0.47-0.172,0.871-0.516,1.2
	c-0.342,0.33-0.742,0.496-1.199,0.496H149.4c-0.253,0-0.444,0.114-0.57,0.342c-0.482,1.016-1.043,2.095-1.677,3.237
	c-0.025,0.077-0.019,0.147,0.02,0.209c0.038,0.064,0.096,0.096,0.17,0.096h14.702c0.915,0,1.696,0.324,2.344,0.971
	c0.647,0.648,0.97,1.429,0.97,2.343v16.11c0,1.018-0.132,1.804-0.399,2.363c-0.266,0.557-0.729,0.976-1.39,1.257
	c-0.864,0.355-2.514,0.544-4.951,0.571c-0.532,0-1.003-0.166-1.41-0.497c-0.406-0.355-0.698-0.787-0.876-1.294
	c-0.151-0.406-0.101-0.787,0.154-1.144c0.252-0.354,0.582-0.519,0.988-0.494h2.21h1.257c0.328,0,0.559-0.058,0.685-0.171
	c0.128-0.115,0.191-0.324,0.191-0.628v-2.972c0-0.253-0.127-0.382-0.381-0.382h-14.511c-0.255,0-0.382,0.129-0.382,0.382v5.446
	c0,0.481-0.172,0.9-0.515,1.256c-0.342,0.357-0.761,0.535-1.257,0.535c-0.495,0-0.919-0.178-1.276-0.535
	c-0.355-0.355-0.533-0.774-0.533-1.256V26.59c0-0.076-0.032-0.119-0.095-0.132c-0.063-0.014-0.121,0.006-0.171,0.056
	c-1.295,1.475-2.666,2.794-4.114,3.961c-0.329,0.254-0.685,0.382-1.065,0.382h-0.268c-0.509-0.076-0.926-0.317-1.257-0.725
	c-0.279-0.329-0.418-0.698-0.418-1.104c0-0.558,0.215-1.004,0.647-1.333c3.326-2.641,6.195-6.247,8.607-10.817
	c0.026-0.076,0.02-0.152-0.019-0.228c-0.039-0.077-0.109-0.114-0.209-0.114h-7.124c-0.457,0-0.851-0.166-1.181-0.496
	c-0.33-0.329-0.495-0.73-0.495-1.2s0.165-0.869,0.495-1.2c0.33-0.33,0.724-0.495,1.181-0.495h8.609c0.253,0,0.431-0.115,0.533-0.343
	c0.354-0.915,0.672-1.815,0.95-2.704c0.153-0.508,0.471-0.901,0.953-1.181c0.306-0.177,0.635-0.267,0.992-0.267
	c0.15,0,0.303,0.014,0.456,0.039c0.48,0.127,0.849,0.407,1.104,0.838c0.151,0.279,0.228,0.559,0.228,0.837
	c0,0.178-0.024,0.369-0.076,0.571c-0.229,0.711-0.444,1.321-0.646,1.829c-0.025,0.101-0.014,0.19,0.038,0.266
	c0.05,0.077,0.126,0.115,0.228,0.115h17.292C168.597,13.146,168.997,13.311,169.339,13.641 M161.437,26.972
	c0.254,0,0.381-0.128,0.381-0.382v-2.627c0-0.253-0.127-0.381-0.381-0.381h-14.511c-0.255,0-0.382,0.127-0.382,0.381v2.627
	c0,0.254,0.127,0.382,0.382,0.382H161.437z M146.544,33.028c0,0.252,0.127,0.38,0.382,0.38h14.511c0.254,0,0.381-0.128,0.381-0.38
	v-2.629c0-0.253-0.127-0.381-0.381-0.381h-14.511c-0.255,0-0.382,0.128-0.382,0.381V33.028z"/>
<path fill="#004447" d="M185.47,27.885c-0.051-0.15-0.165-0.228-0.344-0.228l-1.942,0.151c-0.228,0.025-0.341,0.167-0.341,0.42
	v14.207c0,0.432-0.159,0.805-0.477,1.123c-0.319,0.317-0.699,0.477-1.144,0.477c-0.443,0-0.818-0.159-1.124-0.477
	c-0.304-0.318-0.456-0.691-0.456-1.123V28.456c0-0.102-0.037-0.19-0.114-0.266c-0.076-0.076-0.166-0.103-0.267-0.076
	c-0.509,0.025-1.2,0.063-2.076,0.114c-0.875,0.051-1.454,0.088-1.732,0.115h-0.115c-0.407,0-0.762-0.128-1.064-0.383
	c-0.407-0.354-0.61-0.786-0.61-1.295c0-0.354,0.114-0.672,0.343-0.951c0.279-0.33,0.635-0.51,1.066-0.533l0.875-0.039
	c0.178-0.025,0.33-0.113,0.457-0.266c0.688-0.863,1.258-1.625,1.715-2.285c0.151-0.229,0.151-0.444,0-0.648
	c-0.813-1.193-1.93-2.551-3.352-4.075c-0.331-0.355-0.494-0.774-0.494-1.257c0-0.38,0.113-0.736,0.341-1.066l0.114-0.152
	c0.229-0.28,0.515-0.432,0.856-0.458c0.343-0.024,0.644,0.076,0.897,0.305c0.074,0.077,0.138,0.077,0.188,0
	c0.914-1.701,1.739-3.491,2.477-5.371c0.176-0.432,0.481-0.748,0.914-0.952c0.229-0.127,0.457-0.19,0.686-0.19
	c0.203,0,0.406,0.038,0.609,0.114c0.406,0.152,0.698,0.444,0.876,0.875c0.076,0.178,0.114,0.356,0.114,0.533
	c0,0.229-0.064,0.458-0.189,0.686c-1.347,2.59-2.503,4.622-3.467,6.095c-0.127,0.203-0.115,0.406,0.038,0.609
	c0.508,0.558,0.926,1.066,1.257,1.523c0.051,0.076,0.12,0.108,0.21,0.095c0.088-0.013,0.157-0.057,0.209-0.134
	c1.116-1.727,2.082-3.364,2.895-4.913c0.229-0.406,0.56-0.686,0.991-0.838c0.202-0.077,0.393-0.114,0.57-0.114
	c0.255,0,0.495,0.063,0.725,0.191c0.38,0.178,0.634,0.469,0.76,0.875c0.052,0.152,0.076,0.292,0.076,0.419
	c0,0.279-0.076,0.533-0.228,0.761c-2.26,3.504-4.393,6.551-6.398,9.142c-0.051,0.075-0.056,0.146-0.02,0.209
	c0.038,0.063,0.083,0.095,0.134,0.095l3.885-0.267c0.103,0,0.171-0.032,0.209-0.096c0.038-0.063,0.044-0.133,0.021-0.209
	c-0.204-0.431-0.433-0.901-0.686-1.408c-0.179-0.331-0.205-0.667-0.077-1.011c0.127-0.342,0.355-0.59,0.686-0.742
	c0.381-0.153,0.763-0.172,1.143-0.058c0.381,0.114,0.673,0.349,0.876,0.705c1.041,1.879,1.866,3.681,2.475,5.408
	c0.053,0.179,0.077,0.355,0.077,0.533c0,0.229-0.051,0.457-0.151,0.686c-0.179,0.407-0.473,0.699-0.876,0.878
	c-0.355,0.176-0.713,0.184-1.068,0.018c-0.354-0.165-0.596-0.438-0.722-0.819C185.623,28.344,185.547,28.114,185.47,27.885
	 M175.3,32.075c0.051-0.406,0.241-0.73,0.572-0.972c0.329-0.242,0.698-0.336,1.104-0.286c0.431,0.077,0.773,0.286,1.028,0.63
	c0.253,0.342,0.344,0.716,0.266,1.123c-0.457,2.87-1.028,5.218-1.714,7.046c-0.152,0.382-0.418,0.635-0.8,0.762
	c-0.381,0.128-0.748,0.103-1.104-0.076c-0.356-0.178-0.609-0.458-0.763-0.838c-0.151-0.381-0.151-0.748,0-1.104
	C174.501,36.658,174.97,34.564,175.3,32.075 M184.213,32.531c-0.051-0.152-0.076-0.304-0.076-0.456c0-0.203,0.038-0.394,0.114-0.572
	c0.177-0.329,0.432-0.545,0.761-0.646c0.382-0.128,0.744-0.101,1.087,0.076c0.343,0.179,0.59,0.445,0.742,0.799
	c0.509,1.424,0.901,2.78,1.181,4.076c0.101,0.407,0.039,0.786-0.19,1.142c-0.229,0.358-0.533,0.598-0.913,0.725
	c-0.381,0.103-0.725,0.052-1.029-0.152c-0.304-0.202-0.495-0.481-0.571-0.838C185.063,35.337,184.694,33.954,184.213,32.531
	 M193.582,29.18c0.839,0,1.524,0.103,2.057,0.305c0.279,0.127,0.489,0.331,0.628,0.609c0.14,0.28,0.172,0.571,0.096,0.878
	c-1.22,4.697-3.377,8.226-6.476,10.588c-0.303,0.202-0.621,0.305-0.951,0.305h-0.305c-0.456-0.103-0.851-0.332-1.18-0.686
	c-0.255-0.28-0.383-0.585-0.383-0.915c0-0.481,0.191-0.862,0.571-1.143c2.235-1.6,3.897-3.795,4.99-6.59
	c0.025-0.076,0.014-0.152-0.037-0.228c-0.053-0.076-0.114-0.114-0.192-0.114h-2.741c-0.406,0-0.755-0.153-1.048-0.458
	c-0.291-0.304-0.437-0.659-0.437-1.066c0-0.406,0.146-0.755,0.437-1.047c0.293-0.291,0.642-0.438,1.048-0.438H193.582z
	 M205.389,28.914c0.357-0.382,0.789-0.61,1.297-0.686h0.266c0.406,0,0.787,0.126,1.144,0.38c0.404,0.281,0.608,0.674,0.608,1.182
	c0,0.431-0.166,0.787-0.495,1.066c-1.522,1.296-2.856,2.36-4,3.199c-0.229,0.152-0.267,0.33-0.113,0.533
	c1.32,1.727,2.843,3.098,4.569,4.113c0.382,0.229,0.61,0.571,0.687,1.028c0.025,0.102,0.038,0.204,0.038,0.306
	c0,0.33-0.102,0.633-0.305,0.913c-0.304,0.405-0.698,0.673-1.181,0.8c-0.152,0.026-0.305,0.038-0.458,0.038
	c-0.303,0-0.608-0.088-0.912-0.267c-2.438-1.7-4.444-4.089-6.02-7.16c-0.024-0.051-0.063-0.069-0.113-0.057
	c-0.052,0.012-0.076,0.044-0.076,0.094v6.019c0,0.863-0.089,1.528-0.267,2c-0.179,0.469-0.547,0.831-1.105,1.086
	c-0.686,0.304-1.827,0.481-3.427,0.533h-0.038c-0.432,0-0.825-0.152-1.182-0.459c-0.381-0.303-0.635-0.684-0.762-1.141
	c-0.127-0.356-0.075-0.692,0.153-1.01c0.228-0.319,0.531-0.477,0.914-0.477h0.57c0.635,0,1.067-0.013,1.295-0.038
	c0.229,0,0.381-0.037,0.458-0.114c0.075-0.075,0.113-0.215,0.113-0.419V26.553c0-0.255-0.127-0.382-0.38-0.382h-3.923
	c-0.914,0-1.695-0.323-2.343-0.972c-0.647-0.646-0.972-1.427-0.972-2.341v-7.389c0-0.915,0.324-1.695,0.972-2.342
	s1.429-0.971,2.343-0.971h2.514c0.254,0,0.431-0.114,0.532-0.342c0.253-0.584,0.47-1.13,0.647-1.638
	c0.229-0.558,0.585-1.003,1.066-1.333c0.405-0.229,0.813-0.342,1.22-0.342c0.151,0,0.29,0.013,0.419,0.038
	c0.507,0.076,0.876,0.355,1.104,0.838c0.102,0.204,0.153,0.419,0.153,0.647c0,0.229-0.064,0.457-0.19,0.686
	c-0.204,0.381-0.405,0.761-0.61,1.143c-0.05,0.076-0.057,0.146-0.019,0.209s0.107,0.095,0.209,0.095h4.915
	c0.913,0,1.693,0.324,2.342,0.971c0.647,0.647,0.97,1.428,0.97,2.342v7.389c0,0.914-0.322,1.695-0.97,2.341
	c-0.648,0.648-1.429,0.972-2.342,0.972h-4.229c-0.101,0-0.151,0.045-0.151,0.134s0.012,0.185,0.038,0.285
	c0.457,1.727,1.066,3.353,1.828,4.877c0.051,0.101,0.12,0.157,0.21,0.171c0.089,0.013,0.171-0.007,0.247-0.058
	C203.638,30.691,204.552,29.803,205.389,28.914 M193.087,15.012c-0.253,0-0.381,0.127-0.381,0.381v2.056
	c0,0.254,0.128,0.381,0.381,0.381h11.121c0.254,0,0.382-0.127,0.382-0.381v-2.056c0-0.254-0.128-0.381-0.382-0.381H193.087z
	 M193.087,20.496c-0.253,0-0.381,0.127-0.381,0.381v2.057c0,0.254,0.128,0.381,0.381,0.381h11.121c0.254,0,0.382-0.126,0.382-0.381
	v-2.057c0-0.254-0.128-0.381-0.382-0.381H193.087z"/>
<path fill="#004447" d="M231.879,25.086c-0.342,0.343-0.755,0.515-1.237,0.515s-0.896-0.172-1.237-0.515
	c-0.345-0.343-0.515-0.768-0.515-1.276v-6.397c0-0.254-0.127-0.381-0.382-0.381h-10.739c-0.255,0-0.382,0.127-0.382,0.381v3.161
	c0,0.457-0.158,0.838-0.476,1.142c-0.317,0.306-0.699,0.457-1.142,0.457c-0.445,0-0.825-0.151-1.144-0.457
	c-0.318-0.304-0.477-0.685-0.477-1.142v-2.705c0-0.914,0.323-1.695,0.972-2.342c0.648-0.648,1.428-0.972,2.342-0.972h11.045
	c0.255,0,0.382-0.126,0.382-0.381v-1.218c0-0.253-0.127-0.381-0.382-0.381H217.92c-0.38,0-0.712-0.139-0.99-0.419
	c-0.279-0.279-0.419-0.61-0.419-0.989c0-0.382,0.14-0.706,0.419-0.972c0.278-0.267,0.61-0.4,0.99-0.4h25.596
	c0.381,0,0.71,0.133,0.99,0.4c0.278,0.267,0.418,0.59,0.418,0.972c0,0.379-0.14,0.71-0.418,0.989c-0.28,0.28-0.609,0.419-0.99,0.419
	h-10.742c-0.254,0-0.38,0.128-0.38,0.381v1.218c0,0.255,0.126,0.381,0.38,0.381h11.313c0.913,0,1.694,0.324,2.341,0.972
	c0.648,0.647,0.974,1.428,0.974,2.342v2.628c0,0.483-0.167,0.883-0.497,1.201c-0.329,0.317-0.724,0.475-1.18,0.475
	c-0.457,0-0.852-0.158-1.181-0.475c-0.331-0.318-0.496-0.718-0.496-1.201v-3.084c0-0.254-0.128-0.381-0.381-0.381h-10.894
	c-0.254,0-0.38,0.127-0.38,0.381v6.397C232.394,24.318,232.223,24.743,231.879,25.086 M235.06,40.987h8.112
	c0.813,0,1.385-0.171,1.715-0.515c0.329-0.342,0.558-1.047,0.686-2.112c0.051-0.383,0.246-0.661,0.591-0.839
	c0.343-0.178,0.691-0.202,1.047-0.075c0.457,0.178,0.825,0.456,1.104,0.836c0.201,0.306,0.305,0.624,0.305,0.952
	c0,0.103-0.014,0.191-0.037,0.268c-0.282,1.677-0.789,2.813-1.525,3.409s-1.968,0.895-3.694,0.895h-8.569
	c-2.387,0-4-0.298-4.838-0.895c-0.837-0.597-1.256-1.771-1.256-3.522v-0.344c0-0.254-0.127-0.381-0.381-0.381h-7.085
	c-0.127,0-0.188,0.063-0.188,0.191c0,0.457-0.167,0.85-0.497,1.181c-0.33,0.33-0.724,0.493-1.18,0.493h-0.078
	c-0.456,0-0.855-0.17-1.198-0.513c-0.343-0.344-0.514-0.755-0.514-1.237v-8.723c0-0.915,0.322-1.695,0.97-2.343
	s1.429-0.972,2.343-0.972h19.807c0.914,0,1.694,0.324,2.342,0.972s0.971,1.428,0.971,2.343v5.294c0,0.914-0.323,1.694-0.971,2.342
	s-1.428,0.972-2.342,0.972h-8.151c-0.255,0-0.381,0.127-0.381,0.381v0.344c0,0.685,0.177,1.123,0.533,1.313
	C233.054,40.891,233.841,40.987,235.06,40.987 M219.481,24.801c-0.279,0-0.526-0.102-0.742-0.305
	c-0.217-0.203-0.324-0.45-0.324-0.743c0-0.292,0.107-0.539,0.324-0.743c0.216-0.203,0.463-0.305,0.742-0.305h6.628
	c0.304,0,0.558,0.102,0.761,0.305c0.203,0.204,0.305,0.452,0.305,0.743c0,0.292-0.102,0.54-0.305,0.743
	c-0.203,0.204-0.457,0.305-0.761,0.305H219.481z M219.52,20.592c-0.202-0.215-0.305-0.463-0.305-0.743
	c0-0.279,0.103-0.527,0.305-0.743c0.203-0.216,0.457-0.323,0.762-0.323h5.79c0.306,0,0.557,0.107,0.762,0.323
	c0.203,0.216,0.304,0.464,0.304,0.743c0,0.28-0.101,0.528-0.304,0.743c-0.205,0.217-0.456,0.324-0.762,0.324h-5.79
	C219.977,20.916,219.723,20.809,219.52,20.592 M228.699,29.676c0-0.253-0.127-0.381-0.381-0.381h-6.894
	c-0.255,0-0.38,0.128-0.38,0.381v1.523c0,0.254,0.125,0.381,0.38,0.381h6.894c0.254,0,0.381-0.127,0.381-0.381V29.676z
	 M221.045,35.692c0,0.255,0.125,0.382,0.38,0.382h6.894c0.254,0,0.381-0.127,0.381-0.382v-1.446c0-0.253-0.127-0.381-0.381-0.381
	h-6.894c-0.255,0-0.38,0.128-0.38,0.381V35.692z M240.088,31.58c0.254,0,0.381-0.127,0.381-0.381v-1.523
	c0-0.253-0.127-0.381-0.381-0.381h-7.542c-0.255,0-0.381,0.128-0.381,0.381v1.523c0,0.254,0.126,0.381,0.381,0.381H240.088z
	 M232.165,35.692c0,0.255,0.126,0.382,0.381,0.382h7.542c0.254,0,0.381-0.127,0.381-0.382v-1.446c0-0.253-0.127-0.381-0.381-0.381
	h-7.542c-0.255,0-0.381,0.128-0.381,0.381V35.692z M234.489,20.592c-0.205-0.215-0.305-0.463-0.305-0.743
	c0-0.279,0.1-0.527,0.305-0.743c0.202-0.216,0.457-0.323,0.761-0.323h5.865c0.306,0,0.559,0.107,0.763,0.323
	c0.202,0.216,0.303,0.464,0.303,0.743c0,0.28-0.101,0.528-0.303,0.743c-0.204,0.217-0.457,0.324-0.763,0.324h-5.865
	C234.946,20.916,234.691,20.809,234.489,20.592 M235.25,24.801c-0.304,0-0.559-0.102-0.761-0.305
	c-0.205-0.203-0.305-0.45-0.305-0.743c0-0.292,0.1-0.539,0.305-0.743c0.202-0.203,0.457-0.305,0.761-0.305h6.856
	c0.279,0,0.525,0.102,0.742,0.305c0.216,0.204,0.323,0.452,0.323,0.743c0,0.292-0.107,0.54-0.323,0.743
	c-0.217,0.204-0.463,0.305-0.742,0.305H235.25z"/>
<path fill="#004447" d="M266.407,28.57c0.431,0.407,0.647,0.914,0.647,1.523c0,0.483-0.14,0.908-0.421,1.276
	c-0.278,0.369-0.659,0.553-1.141,0.553c-0.458,0-0.84-0.178-1.143-0.533c-0.788-0.94-1.677-1.943-2.666-3.009
	c-0.053-0.05-0.109-0.064-0.173-0.037c-0.063,0.024-0.095,0.076-0.095,0.15v13.788c0,0.508-0.172,0.934-0.515,1.276
	s-0.762,0.515-1.257,0.515s-0.914-0.172-1.256-0.515c-0.345-0.343-0.516-0.769-0.516-1.276V30.247c0-0.077-0.031-0.127-0.095-0.153
	c-0.063-0.023-0.121-0.013-0.17,0.038c-1.067,1.042-2.134,1.981-3.201,2.818c-0.279,0.179-0.57,0.267-0.875,0.267
	c-0.129,0-0.267-0.012-0.42-0.037c-0.456-0.127-0.799-0.419-1.029-0.876c-0.177-0.305-0.265-0.622-0.265-0.953
	c0-0.151,0.024-0.316,0.075-0.494c0.102-0.508,0.367-0.914,0.8-1.219c1.829-1.294,3.562-2.876,5.2-4.742
	c1.637-1.867,2.988-3.814,4.055-5.847c0.025-0.076,0.019-0.152-0.02-0.229c-0.035-0.076-0.107-0.113-0.208-0.113h-7.58
	c-0.433,0-0.813-0.159-1.142-0.477c-0.332-0.316-0.495-0.704-0.495-1.162s0.163-0.844,0.495-1.161
	c0.329-0.317,0.709-0.476,1.142-0.476h3.352c0.254,0,0.381-0.126,0.381-0.381v-5.028c0-0.482,0.171-0.895,0.516-1.237
	c0.342-0.343,0.761-0.514,1.256-0.514s0.914,0.17,1.257,0.514c0.343,0.343,0.515,0.755,0.515,1.237v5.028
	c0,0.255,0.127,0.381,0.382,0.381h2.093h0.114c0.381-0.077,0.725-0.013,1.029,0.19l0.533,0.381c0.304,0.178,0.515,0.438,0.628,0.78
	c0.115,0.344,0.096,0.667-0.057,0.973c-0.965,2.259-2.196,4.481-3.694,6.665c-0.153,0.204-0.127,0.394,0.076,0.571
	C263.563,25.905,264.857,27.099,266.407,28.57 M281.679,40.683h2.361c0.33,0,0.559-0.177,0.686-0.533
	c0.126-0.355,0.216-1.143,0.267-2.361c0.025-0.33,0.191-0.585,0.496-0.764c0.304-0.176,0.621-0.201,0.952-0.075
	c0.456,0.204,0.813,0.509,1.066,0.916c0.228,0.329,0.343,0.672,0.343,1.026v0.229c-0.202,1.777-0.56,2.99-1.065,3.637
	c-0.51,0.648-1.309,0.972-2.401,0.972h-3.198c-1.474,0-2.452-0.285-2.934-0.856s-0.723-1.67-0.723-3.294v-7.237
	c0-0.254-0.128-0.382-0.382-0.382h-1.904c-0.254,0-0.395,0.128-0.419,0.382c-0.355,2.641-1.054,4.855-2.095,6.646
	s-2.691,3.244-4.95,4.36c-0.255,0.128-0.522,0.189-0.801,0.189c-0.178,0-0.368-0.036-0.57-0.112
	c-0.458-0.152-0.839-0.433-1.144-0.838c-0.179-0.255-0.267-0.522-0.267-0.801c0-0.101,0.012-0.202,0.038-0.304
	c0.102-0.407,0.331-0.698,0.686-0.877c1.828-0.862,3.148-1.961,3.961-3.294c0.812-1.334,1.372-3.016,1.675-5.046
	c0.026-0.203-0.062-0.307-0.265-0.307c-0.687,0-1.278-0.239-1.773-0.722c-0.493-0.482-0.741-1.08-0.741-1.792V13.527
	c0-0.915,0.323-1.695,0.972-2.343c0.647-0.647,1.428-0.971,2.342-0.971h10.018c0.914,0,1.694,0.324,2.342,0.971
	c0.646,0.648,0.972,1.429,0.972,2.343v15.121c0,0.913-0.325,1.695-0.972,2.343c-0.647,0.647-1.428,0.97-2.342,0.97h-0.724
	c-0.255,0-0.381,0.128-0.381,0.382v7.237c0,0.48,0.05,0.787,0.151,0.914C281.058,40.62,281.298,40.683,281.679,40.683
	 M272.31,13.146c-0.254,0-0.381,0.127-0.381,0.381v2.666c0,0.254,0.127,0.381,0.381,0.381h9.026c0.254,0,0.383-0.127,0.383-0.381
	v-2.666c0-0.254-0.129-0.381-0.383-0.381H272.31z M272.31,19.316c-0.254,0-0.381,0.127-0.381,0.381v2.666
	c0,0.254,0.127,0.38,0.381,0.38h9.026c0.254,0,0.383-0.126,0.383-0.38v-2.666c0-0.253-0.129-0.381-0.383-0.381H272.31z
	 M272.31,25.523c-0.254,0-0.381,0.128-0.381,0.382v2.742c0,0.254,0.127,0.381,0.381,0.381h9.026c0.254,0,0.383-0.127,0.383-0.381
	v-2.742c0-0.254-0.129-0.382-0.383-0.382H272.31z"/>
</svg>
